PathFileType	4	(X/Y/Z)	Walk2.trc
DataRate	CameraRate	NumFrames	NumMarkers	Units	OrigDataRate	OrigDataStartFrame	OrigNumFrames
200.000000	200.000000	4	67	mm	200.000000	661	955
Frame#	Times		LBHD		LowerBodyModelVer		LWRR		RLFC		LElbow		RTH2		RToe		LACR1		RMT5		C7		RTB2		LCAR		LUA1		RTB3		RMT1		RTB4		LWRU		RMMAL		LToe		RCAR		RCAL		LTH3		RASI		RFA1		LASI		PELOrigin		LLFC		RElbow		RElbowM		LPSI		RTH3		LTB2		RPSI		LHJC		MidPelvis		OPelvis		RHJC		SACR		XPelvis		YPelvis		ZPelvis		LFHD		LMMAL		LCAL		RBHD		RUA1		LMT5		T10		STRN		RACR1		LTH2		RMFC		RLMAL		RKJC		LLMAL		RFHD		CLAV		LTH4		RWRR		LTB1		LTH1		LTB3		LTB4		RTB1		LMT1		RTH1		RTH4
			X1	Y1	Z1	X2	Y2	Z2	X3	Y3	Z3	X4	Y4	Z4	X5	Y5	Z5	X6	Y6	Z6	X7	Y7	Z7	X8	Y8	Z8	X9	Y9	Z9	X10	Y10	Z10	X11	Y11	Z11	X12	Y12	Z12	X13	Y13	Z13	X14	Y14	Z14	X15	Y15	Z15	X16	Y16	Z16	X17	Y17	Z17	X18	Y18	Z18	X19	Y19	Z19	X20	Y20	Z20	X21	Y21	Z21	X22	Y22	Z22	X23	Y23	Z23	X24	Y24	Z24	X25	Y25	Z25	X26	Y26	Z26	X27	Y27	Z27	X28	Y28	Z28	X29	Y29	Z29	X30	Y30	Z30	X31	Y31	Z31	X32	Y32	Z32	X33	Y33	Z33	X34	Y34	Z34	X35	Y35	Z35	X36	Y36	Z36	X37	Y37	Z37	X38	Y38	Z38	X39	Y39	Z39	X40	Y40	Z40	X41	Y41	Z41	X42	Y42	Z42	X43	Y43	Z43	X44	Y44	Z44	X45	Y45	Z45	X46	Y46	Z46	X47	Y47	Z47	X48	Y48	Z48	X49	Y49	Z49	X50	Y50	Z50	X51	Y51	Z51	X52	Y52	Z52	X53	Y53	Z53	X54	Y54	Z54	X55	Y55	Z55	X56	Y56	Z56	X57	Y57	Z57	X58	Y58	Z58	X59	Y59	Z59	X60	Y60	Z60	X61	Y61	Z61	X62	Y62	Z62	X63	Y63	Z63	X64	Y64	Z64	X65	Y65	Z65	X66	Y66	Z66	X67	Y67	Z67

661	3.305	-508	1600.8	-23.181	9	2014	4	-559.1	807.48	-237.12	-469.03	496.74	179.12	-576.46	1089.8	-234.06	-414.88	645.96	156.21	-704.62	43.721	132.72	-451.83	1412.1	-127.29	-765.51	85.281	172.24	-540.6	1472.1	44.239	-602.65	314.74	171.74	-585.01	948.95	-239.68	-511.06	1215.5	-201.31	-674.33	260.12	99.337	-748.36	61.401	95.852	-601.82	310.39	97.479	-489.76	781.1	-226.18	-786.61	190.55	79.095	-213.5	46.098	-14.602	-427.57	787.96	319.28	-869.02	223.08	102.28	-412.61	580.65	-92.303	-459.35	981.4	189.73	-517.18	923.92	330.55	-437.75	1025.7	-110.58	-448.55	1003.6	39.576	-409.37	519.61	-83.06	-548.22	1083.1	331.01	-586.64	1087.8	254.52	-635.41	1035.1	-2.4732	-467.99	541.87	182.67	-367.01	304.68	-66.928	-643.19	1033.9	66.631	-526.45	935.09	-80.988	-543.92	1019	35.828	-448.55	1003.6	39.576	-541.13	904.96	123.23	-639.3	1034.5	32.079	-369.69	990.64	43.341	-436.35	1081.6	51.976	-454.23	991.9	118.52	-330.34	1635.9	2.0836	-391.96	69.607	33.15	-476.33	34.001	1.7624	-503.6	1597.8	113.66	-468.92	1238.3	284.6	-299.85	25.212	-73.233	-618.76	1219.3	43.276	-428.01	1188.3	50.773	-560.55	1363.3	197.47	-371.45	688.49	-72.94	-498.37	474.14	54.206	-804.76	206.63	158.2	-483.7	485.44	116.66	-413.91	59.314	-48.962	-328.12	1635.6	76.724	-321.41	1457.8	66.15	-429.9	671.78	-114.13	-429.57	831.49	268.03	-358.51	397.43	2.5789	-447.77	761.39	-132.76	-370.4	212.73	3.7506	-366.62	305.33	4.6503	-522.47	366.78	97.071	-260.67	31.907	4.5152	-498.22	731.12	208.48	-476.68	635.08	198.33
662	3.31	-503.39	1601.3	-23.505	9	2014	4	-550.72	807.5	-237.67	-458.85	498.25	178.69	-570.2	1089.7	-234.8	-406.37	647.84	155.6	-693.82	46.62	133.1	-447.05	1412.7	-127.72	-754.88	88.202	172.41	-536	1472.6	43.744	-592.23	316.53	171.17	-577.69	948.77	-240.4	-505.52	1215.7	-201.95	-664.3	262.25	98.863	-737.67	64.038	96.174	-591.65	312.39	96.856	-481.16	781.75	-226.67	-776.67	192.78	78.783	-213.25	45.667	-14.698	-424.09	788.08	318.61	-859.23	225.01	102.06	-409.54	580.64	-92.567	-454.49	981.89	189.56	-513.51	924.18	329.69	-433.01	1026.3	-110.99	-443.75	1004.1	39.282	-406.65	519.56	-83.316	-544.28	1083.4	330.05	-582.53	1088.1	253.54	-630.73	1035.7	-2.8817	-458.31	543.26	182.22	-365.55	304.38	-67.083	-638.43	1034.3	66.228	-521.7	935.53	-81.353	-539.17	1019.5	35.478	-443.75	1004.1	39.282	-536.31	905.35	123.02	-634.58	1035	31.673	-364.88	991.22	43.019	-431.6	1082.2	51.684	-449.39	992.43	118.23	-325.75	1636.5	1.8274	-391.88	69.571	33.224	-476.34	34.008	1.7799	-499.02	1598.3	113.34	-464.94	1238.7	284.11	-299.81	25.173	-73.267	-614.04	1219.9	42.514	-423.21	1189	50.123	-556.24	1363.8	196.81	-367.87	688.39	-73.455	-488.33	475.78	53.746	-794.69	208.99	157.97	-473.59	487.02	116.22	-413.84	59.284	-48.917	-323.55	1636.2	76.488	-316.95	1458.6	65.503	-426.54	671.82	-114.48	-425.94	831.61	267.36	-356.41	397.15	2.299	-444.1	761.47	-133.22	-369.44	212.51	3.6717	-365.11	305.07	4.4987	-512.22	368.57	96.459	-260.58	31.796	4.5134	-491.28	732.29	207.95	-468.06	636.39	197.82
663	3.315	-498.8	1601.9	-23.81	9	2014	4	-542.3	807.56	-238.23	-448.69	499.88	178.24	-563.91	1089.6	-235.53	-397.94	649.84	154.98	-682.47	49.493	133.57	-442.28	1413.3	-128.13	-743.85	90.958	172.61	-531.42	1473.1	43.268	-581.75	318.33	170.61	-570.32	948.62	-241.13	-499.97	1216	-202.55	-654.06	264.26	98.36	-726.43	66.533	96.548	-581.29	314.33	96.197	-472.51	782.44	-227.14	-766.43	194.73	78.416	-213.02	45.269	-14.799	-420.6	788.22	317.97	-849.23	226.51	101.67	-406.41	580.68	-92.801	-449.65	982.42	189.41	-509.85	924.45	328.83	-428.3	1026.9	-111.39	-438.98	1004.6	39.01	-403.99	519.51	-83.575	-540.38	1083.7	329.08	-578.43	1088.5	252.53	-626.07	1036.2	-3.2578	-448.66	544.78	181.75	-364.14	304.08	-67.247	-633.69	1034.8	65.86	-516.99	935.98	-81.69	-534.43	1020.1	35.156	-438.98	1004.6	39.01	-531.51	905.76	122.86	-629.88	1035.5	31.301	-360.1	991.82	42.714	-426.87	1082.7	51.407	-444.58	992.98	117.96	-321.17	1637.2	1.5854	-391.81	69.543	33.29	-476.35	34.011	1.7961	-494.45	1598.8	113.04	-461	1239.1	283.64	-299.77	25.138	-73.299	-609.35	1220.5	41.773	-418.45	1189.7	49.483	-551.96	1364.3	196.17	-364.33	688.34	-73.874	-478.31	477.46	53.274	-784.42	211.1	157.63	-463.5	488.67	115.76	-413.79	59.257	-48.875	-319	1636.9	76.267	-312.55	1459.4	64.847	-423.16	671.9	-114.81	-422.29	831.74	266.71	-354.35	396.88	2.0078	-440.43	761.59	-133.65	-368.53	212.3	3.5869	-363.64	304.81	4.3395	-501.88	370.39	95.878	-260.49	31.683	4.5027	-484.23	733.52	207.42	-459.47	637.79	197.3
664	3.32	-494.22	1602.5	-24.095	9	2014	4	-533.82	807.66	-238.78	-438.56	501.62	177.78	-557.59	1089.5	-236.24	-389.6	651.94	154.36	-670.6	52.315	134.14	-437.53	1413.8	-128.51	-732.43	93.535	172.82	-526.84	1473.7	42.808	-571.2	320.12	170.05	-562.89	948.5	-241.86	-494.42	1216.3	-203.11	-643.61	266.11	97.836	-714.67	68.868	96.969	-570.74	316.19	95.51	-463.83	783.15	-227.61	-755.89	196.39	77.999	-212.82	44.901	-14.905	-417.11	788.4	317.35	-839	227.6	101.12	-403.27	580.75	-93.014	-444.81	982.98	189.29	-506.19	924.75	327.98	-423.64	1027.5	-111.78	-434.22	1005.2	38.755	-401.39	519.45	-83.836	-536.51	1084	328.1	-574.34	1088.8	251.51	-621.43	1036.7	-3.6018	-439.04	546.4	181.28	-362.77	303.78	-67.416	-628.97	1035.2	65.526	-512.32	936.44	-82	-529.71	1020.6	34.859	-434.22	1005.2	38.755	-526.72	906.2	122.73	-625.2	1036	30.962	-355.33	992.45	42.418	-422.16	1083.3	51.141	-439.78	993.56	117.71	-316.61	1637.8	1.3561	-391.74	69.524	33.349	-476.37	34.01	1.8109	-489.9	1599.3	112.75	-457.08	1239.5	283.18	-299.75	25.106	-73.327	-604.68	1221	41.057	-413.71	1190.3	48.85	-547.7	1364.8	195.55	-360.83	688.33	-74.212	-468.32	479.17	52.793	-773.96	212.95	157.2	-453.44	490.39	115.29	-413.74	59.232	-48.832	-314.46	1637.5	76.061	-308.22	1460.2	64.184	-419.76	672	-115.11	-418.63	831.9	266.08	-352.34	396.63	1.7111	-436.77	761.73	-134.04	-367.65	212.09	3.5002	-362.21	304.56	4.1774	-491.45	372.22	95.336	-260.42	31.571	4.4845	-477.04	734.79	206.87	-450.91	639.29	196.79
